<svg width="396" height="396" viewBox="0 0 396 396" fill="none" xmlns="http://www.w3.org/2000/svg">
<path d="M83.1738 362.514C74.1255 362.514 66.3796 359.292 59.9362 352.849C53.4927 346.405 50.271 338.66 50.271 329.611V99.2919C50.271 90.2436 53.4927 82.4978 59.9362 76.0543C66.3796 69.6108 74.1255 66.3891 83.1738 66.3891H99.6252V33.4863H132.528V66.3891H264.139V33.4863H297.042V66.3891H313.493C322.541 66.3891 330.287 69.6108 336.731 76.0543C343.174 82.4978 346.396 90.2436 346.396 99.2919V329.611C346.396 338.66 343.174 346.405 336.731 352.849C330.287 359.292 322.541 362.514 313.493 362.514H83.1738ZM83.1738 329.611H313.493V165.097H83.1738V329.611ZM83.1738 132.195H313.493V99.2919H83.1738V132.195ZM198.333 230.903C193.672 230.903 189.765 229.326 186.612 226.173C183.459 223.02 181.882 219.113 181.882 214.452C181.882 209.79 183.459 205.883 186.612 202.73C189.765 199.577 193.672 198 198.333 198C202.995 198 206.902 199.577 210.055 202.73C213.208 205.883 214.785 209.79 214.785 214.452C214.785 219.113 213.208 223.02 210.055 226.173C206.902 229.326 202.995 230.903 198.333 230.903ZM132.528 230.903C127.867 230.903 123.96 229.326 120.806 226.173C117.653 223.02 116.077 219.113 116.077 214.452C116.077 209.79 117.653 205.883 120.806 202.73C123.96 199.577 127.867 198 132.528 198C137.189 198 141.096 199.577 144.25 202.73C147.403 205.883 148.979 209.79 148.979 214.452C148.979 219.113 147.403 223.02 144.25 226.173C141.096 229.326 137.189 230.903 132.528 230.903ZM264.139 230.903C259.478 230.903 255.571 229.326 252.417 226.173C249.264 223.02 247.688 219.113 247.688 214.452C247.688 209.79 249.264 205.883 252.417 202.73C255.571 199.577 259.478 198 264.139 198C268.8 198 272.707 199.577 275.861 202.73C279.014 205.883 280.59 209.79 280.59 214.452C280.59 219.113 279.014 223.02 275.861 226.173C272.707 229.326 268.8 230.903 264.139 230.903ZM198.333 296.709C193.672 296.709 189.765 295.132 186.612 291.979C183.459 288.826 181.882 284.918 181.882 280.257C181.882 275.596 183.459 271.689 186.612 268.536C189.765 265.382 193.672 263.806 198.333 263.806C202.995 263.806 206.902 265.382 210.055 268.536C213.208 271.689 214.785 275.596 214.785 280.257C214.785 284.918 213.208 288.826 210.055 291.979C206.902 295.132 202.995 296.709 198.333 296.709ZM132.528 296.709C127.867 296.709 123.96 295.132 120.806 291.979C117.653 288.826 116.077 284.918 116.077 280.257C116.077 275.596 117.653 271.689 120.806 268.536C123.96 265.382 127.867 263.806 132.528 263.806C137.189 263.806 141.096 265.382 144.25 268.536C147.403 271.689 148.979 275.596 148.979 280.257C148.979 284.918 147.403 288.826 144.25 291.979C141.096 295.132 137.189 296.709 132.528 296.709ZM264.139 296.709C259.478 296.709 255.571 295.132 252.417 291.979C249.264 288.826 247.688 284.918 247.688 280.257C247.688 275.596 249.264 271.689 252.417 268.536C255.571 265.382 259.478 263.806 264.139 263.806C268.8 263.806 272.707 265.382 275.861 268.536C279.014 271.689 280.59 275.596 280.59 280.257C280.59 284.918 279.014 288.826 275.861 291.979C272.707 295.132 268.8 296.709 264.139 296.709Z" fill="#7A7A7A"/>
</svg>
