<svg width="413" height="412" viewBox="0 0 413 412" fill="none" xmlns="http://www.w3.org/2000/svg">
<path d="M138.167 326.166H258.333V154.499H224C215.989 154.499 209.408 156.502 204.258 160.508C199.108 164.513 192.957 170.378 185.804 178.103C180.082 184.398 173.43 190.907 165.848 197.63C158.266 204.354 149.039 209.29 138.167 212.437V326.166ZM103.833 360.499V212.008C88.9555 208.002 76.6527 199.991 66.9249 187.974C57.1971 175.958 52.3333 161.938 52.3333 145.916C52.3333 130.752 56.6964 117.305 65.4228 105.574C74.1492 93.8437 85.3791 85.6895 99.1124 81.1117C105.693 67.3784 115.492 56.2201 128.51 47.6367C141.528 39.0534 156.192 34.7617 172.5 34.7617C182.514 34.7617 191.884 36.4784 200.61 39.9117C209.337 43.3451 217.276 47.9228 224.429 53.6451C227.29 53.0728 230.008 52.5721 232.583 52.143C235.158 51.7138 238.019 51.4992 241.167 51.4992C260.05 51.4992 276.215 58.2228 289.662 71.6701C303.11 85.1173 309.833 101.283 309.833 120.166C309.833 126.46 309.046 132.469 307.473 138.191C305.899 143.913 303.539 149.349 300.392 154.499H327C336.442 154.499 344.524 157.861 351.248 164.585C357.971 171.308 361.333 179.391 361.333 188.833V291.833C361.333 301.274 357.971 309.357 351.248 316.081C344.524 322.804 336.442 326.166 327 326.166H292.667V360.499H103.833ZM86.6666 145.916C86.6666 155.358 90.0284 163.44 96.752 170.164C103.476 176.887 111.558 180.249 121 180.249C130.155 180.249 137.952 177.245 144.39 171.237C150.827 165.228 157.479 158.505 164.346 151.066C171.499 143.341 179.581 136.26 188.594 129.822C197.606 123.385 209.408 120.166 224 120.166H275.5C275.5 110.724 272.138 102.642 265.415 95.918C258.691 89.1944 250.608 85.8326 241.167 85.8326C234.014 85.8326 228.005 86.7624 223.142 88.6221L215.846 91.4117L202.542 80.2534C199.394 77.6784 195.317 75.1749 190.31 72.743C185.303 70.311 179.367 69.0951 172.5 69.0951C163.344 69.0951 154.976 71.527 147.394 76.3909C139.812 81.2548 134.018 87.8353 130.012 96.1326L124.004 109.008L110.271 113.728C103.118 116.017 97.3958 120.094 93.1041 125.96C88.8124 131.825 86.6666 138.477 86.6666 145.916ZM292.667 291.833H327V188.833H292.667V291.833Z" fill="#7A7A7A"/>
</svg>
